<svg width="338" height="174" viewBox="0 0 338 174" fill="none" xmlns="http://www.w3.org/2000/svg">
<g clip-path="url(#clip0_347_670)">
<path d="M103.957 156.64C103.957 147.504 132.704 140.001 168.136 140.001C203.569 140.001 232.316 147.504 232.316 156.715C232.304 157.757 231.966 158.77 231.35 159.612C226.002 167.411 199.706 173.354 168.136 173.354C132.704 173.354 103.957 165.851 103.957 156.64Z" fill="#EFEFEF"/>
<path d="M103.959 153.595C103.959 144.458 132.706 136.956 168.138 136.956C203.571 136.956 232.318 144.458 232.318 153.669C232.306 154.712 231.968 155.725 231.352 156.566C226.004 164.366 199.708 170.308 168.138 170.308C132.706 170.308 103.959 162.806 103.959 153.595Z" fill="#1EB53A"/>
<path d="M231.352 156.566C226.004 164.366 199.782 170.308 168.138 170.308C132.706 170.308 103.959 162.806 103.959 153.595C103.959 153.595 115.101 167.04 165.91 167.04C209.588 167.114 227.192 158.869 231.352 156.566Z" fill="white"/>
<path d="M204.685 149.732C202.234 147.058 186.783 144.978 168.139 144.978C148.677 144.978 132.78 147.207 131.369 150.029C132.038 148.395 136.495 142.75 168.139 142.75C197.257 142.75 203.422 147.801 204.685 149.732Z" fill="white"/>
<path d="M91.7012 145.275L78.7019 52.2746C78.6302 51.7957 78.3876 51.3589 78.019 51.0448C77.6503 50.7308 77.1805 50.5608 76.6963 50.5661H59.1658C58.877 50.5678 58.5918 50.631 58.3292 50.7514C58.0667 50.8719 57.8328 51.0468 57.6431 51.2646C57.4534 51.4825 57.3122 51.7382 57.2289 52.0148C57.1457 52.2913 57.1222 52.5825 57.1602 52.8688L61.5428 88.0041C61.5853 88.3305 61.5573 88.6622 61.4608 88.9768C61.3642 89.2914 61.2014 89.5817 60.9831 89.8281C60.7649 90.0745 60.4964 90.2712 60.1957 90.4051C59.8951 90.5389 59.5692 90.6067 59.2401 90.604H39.184C38.5777 90.6078 37.9931 90.3788 37.5508 89.9641C37.1084 89.5495 36.8422 88.9808 36.807 88.3755L35.1728 52.5717C35.1475 52.0549 34.9258 51.5672 34.5531 51.2083C34.1803 50.8493 33.6846 50.6462 33.1672 50.6404H16.7509C16.4797 50.6349 16.2103 50.6856 15.9595 50.7892C15.7088 50.8928 15.4822 51.047 15.2939 51.2423C15.1056 51.4376 14.9596 51.6697 14.8652 51.924C14.7708 52.1783 14.73 52.4494 14.7453 52.7203L16.9738 113.928C17.0188 114.865 17.4212 115.75 18.0982 116.399C18.7753 117.048 19.6755 117.414 20.6136 117.42H65.2569L68.7481 145.424H91.7012V145.275Z" fill="#EBEBEB"/>
<path d="M336.906 145.275L323.907 52.2745C323.835 51.7955 323.593 51.3587 323.224 51.0447C322.855 50.7307 322.386 50.5606 321.901 50.566H304.371C304.082 50.5677 303.797 50.6309 303.534 50.7513C303.272 50.8717 303.038 51.0467 302.848 51.2645C302.658 51.4823 302.517 51.738 302.434 52.0146C302.351 52.2912 302.327 52.5824 302.365 52.8687L306.748 88.004C306.79 88.3303 306.762 88.662 306.666 88.9767C306.569 89.2913 306.406 89.5816 306.188 89.828C305.97 90.0744 305.701 90.2711 305.401 90.4049C305.1 90.5388 304.774 90.6066 304.445 90.6038H284.389C283.783 90.6077 283.198 90.3787 282.756 89.964C282.313 89.5493 282.047 88.9807 282.012 88.3754L280.378 52.5716C280.352 52.0547 280.131 51.5671 279.758 51.2081C279.385 50.8492 278.89 50.6461 278.372 50.6403H262.03C261.759 50.6348 261.49 50.6855 261.239 50.789C260.988 50.8926 260.761 51.0469 260.573 51.2422C260.385 51.4375 260.239 51.6695 260.145 51.9239C260.05 52.1782 260.009 52.4493 260.025 52.7201L262.253 113.928C262.298 114.865 262.701 115.75 263.378 116.399C264.055 117.048 264.955 117.414 265.893 117.42H310.536L314.027 145.424H336.906V145.275Z" fill="#EBEBEB"/>
<path d="M78.1811 53.2401L68.3759 164.366C68.2939 165.374 67.8363 166.316 67.0935 167.004C66.3507 167.691 65.377 168.075 64.3647 168.08H49.6569C49.0849 168.08 48.5193 167.958 47.9977 167.723C47.4761 167.488 47.0103 167.146 46.6311 166.717C46.2519 166.289 45.968 165.785 45.7981 165.239C45.6283 164.692 45.5763 164.116 45.6457 163.548L51.8111 111.477L7.76203 112.22C7.19296 112.229 6.62881 112.113 6.11004 111.879C5.59128 111.645 5.13077 111.299 4.76154 110.866C4.39231 110.432 4.12353 109.923 3.97446 109.374C3.8254 108.824 3.79976 108.249 3.89938 107.689L4.04794 106.723L14.1503 52.5716C14.2865 51.8429 14.6726 51.1845 15.2421 50.7099C15.8116 50.2354 16.5288 49.9743 17.2701 49.9717H31.3093C31.7691 49.9793 32.2219 50.0856 32.6371 50.2833C33.0522 50.481 33.4201 50.7655 33.7159 51.1176C34.0117 51.4697 34.2284 51.8811 34.3514 52.3242C34.4745 52.7673 34.501 53.2316 34.4292 53.6858L28.4124 87.8554C28.3554 88.1779 28.3706 88.509 28.457 88.8249C28.5434 89.1408 28.6987 89.4336 28.9119 89.6822C29.125 89.9309 29.3906 90.1292 29.6895 90.2628C29.9885 90.3965 30.3134 90.4622 30.6408 90.4552H51.6625L56.5651 52.4973C56.6681 51.7804 57.0243 51.1241 57.5693 50.6471C58.1144 50.1702 58.8122 49.9043 59.5364 49.8974H75.2098C75.6246 49.9214 76.0305 50.0269 76.4044 50.208C76.7783 50.389 77.1128 50.642 77.3888 50.9525C77.6648 51.263 77.8768 51.6248 78.0128 52.0174C78.1487 52.4099 78.2059 52.8254 78.1811 53.2401Z" fill="#1EB53A"/>
<path d="M52.1083 106.723L51.7369 111.477L7.68781 112.22C7.11874 112.229 6.55459 112.113 6.03583 111.879C5.51706 111.645 5.05655 111.299 4.68732 110.866C4.31809 110.433 4.04931 109.923 3.90025 109.374C3.75118 108.824 3.72554 108.249 3.82516 107.689L3.97372 106.723H52.1083Z" fill="white"/>
<path d="M78.1796 53.2401L68.3744 164.366C68.2924 165.375 67.8348 166.316 67.092 167.004C66.3492 167.691 65.3755 168.075 64.3632 168.08H62.1348L73.797 49.9717H75.2084C75.6212 49.9814 76.0279 50.0749 76.4036 50.2464C76.7793 50.4179 77.1163 50.6639 77.3941 50.9695C77.6719 51.2751 77.8848 51.6339 78.0198 52.0242C78.1548 52.4145 78.2092 52.8282 78.1796 53.2401Z" fill="white"/>
<path d="M28.3387 87.9296C28.2818 88.2521 28.297 88.5832 28.3834 88.8991C28.4698 89.215 28.6251 89.5078 28.8382 89.7564C29.0513 90.0051 29.3169 90.2034 29.6159 90.337C29.9149 90.4707 30.2398 90.5364 30.5672 90.5295H26.2588C25.8871 90.5319 25.5194 90.4529 25.1816 90.298C24.8437 90.1431 24.5438 89.916 24.3031 89.6328C24.0624 89.3496 23.8866 89.0171 23.7882 88.6587C23.6897 88.3003 23.671 87.9246 23.7332 87.5582L30.3443 50.0459H31.31C31.7698 50.0536 32.2225 50.1598 32.6377 50.3575C33.0529 50.5552 33.4208 50.8397 33.7165 51.1918C34.0123 51.5439 34.229 51.9554 34.3521 52.3984C34.4751 52.8415 34.5016 53.3058 34.4298 53.76L28.3387 87.9296Z" fill="white"/>
<path d="M323.308 53.2401L313.503 164.366C313.421 165.374 312.963 166.316 312.22 167.004C311.478 167.691 310.504 168.075 309.492 168.08H294.784C294.212 168.08 293.646 167.958 293.125 167.723C292.603 167.488 292.137 167.146 291.758 166.717C291.379 166.289 291.095 165.785 290.925 165.239C290.755 164.692 290.703 164.116 290.773 163.548L296.938 111.477L252.889 112.22C252.32 112.229 251.756 112.113 251.237 111.879C250.718 111.645 250.258 111.299 249.888 110.866C249.519 110.432 249.25 109.923 249.101 109.374C248.952 108.824 248.927 108.249 249.026 107.689L249.175 106.723L259.277 52.5715C259.413 51.8429 259.8 51.1845 260.369 50.7099C260.939 50.2354 261.656 49.9743 262.397 49.9717H276.436C276.896 49.9793 277.349 50.0856 277.764 50.2833C278.179 50.481 278.547 50.7655 278.843 51.1176C279.139 51.4697 279.355 51.8811 279.478 52.3242C279.601 52.7673 279.628 53.2316 279.556 53.6858L273.539 87.8554C273.482 88.1779 273.498 88.509 273.584 88.8249C273.67 89.1408 273.826 89.4336 274.039 89.6822C274.252 89.9309 274.518 90.1292 274.816 90.2628C275.115 90.3965 275.44 90.4622 275.768 90.4552H296.789L301.692 52.4973C301.795 51.7804 302.151 51.1241 302.696 50.6471C303.241 50.1702 303.939 49.9043 304.663 49.8974H320.337C320.756 49.9083 321.168 50.005 321.549 50.1817C321.929 50.3584 322.269 50.6112 322.547 50.9246C322.826 51.2379 323.037 51.6051 323.168 52.0034C323.299 52.4017 323.346 52.8226 323.308 53.2401Z" fill="#1EB53A"/>
<path d="M297.309 106.723L296.938 111.477L252.889 112.22C252.32 112.229 251.756 112.113 251.237 111.879C250.718 111.645 250.258 111.299 249.888 110.866C249.519 110.433 249.25 109.923 249.101 109.374C248.952 108.824 248.927 108.249 249.026 107.689L249.175 106.723H297.309Z" fill="white"/>
<path d="M323.309 53.2401L313.503 164.366C313.421 165.374 312.964 166.316 312.221 167.004C311.478 167.691 310.504 168.075 309.492 168.08H307.264L318.926 49.9717H320.337C320.754 49.9683 321.167 50.053 321.549 50.2201C321.931 50.3872 322.273 50.633 322.554 50.9415C322.834 51.25 323.046 51.6142 323.176 52.0102C323.306 52.4063 323.351 52.8254 323.309 53.2401Z" fill="white"/>
<path d="M273.538 87.9296C273.481 88.2521 273.496 88.5832 273.583 88.8991C273.669 89.215 273.824 89.5078 274.037 89.7564C274.251 90.0051 274.516 90.2034 274.815 90.337C275.114 90.4707 275.439 90.5364 275.766 90.5295H271.458C271.086 90.5319 270.719 90.4529 270.381 90.298C270.043 90.1431 269.743 89.916 269.502 89.6328C269.262 89.3496 269.086 89.0171 268.987 88.6587C268.889 88.3003 268.87 87.9246 268.932 87.5582L275.544 50.0459H276.509C276.969 50.0536 277.422 50.1598 277.837 50.3575C278.252 50.5552 278.62 50.8397 278.916 51.1918C279.212 51.5439 279.428 51.9554 279.551 52.3984C279.674 52.8415 279.701 53.3058 279.629 53.76L273.538 87.9296Z" fill="white"/>
<path opacity="0.28" d="M138.797 75.8937L123.57 153.147C122.753 157.307 125.427 161.243 129.066 161.243H209.736C213.302 161.243 215.976 157.455 215.308 153.444L202.828 76.1909C202.308 73.071 200.006 70.8426 197.257 70.8426H144.369C141.694 70.7683 139.392 72.9225 138.797 75.8937Z" fill="#EBEBEB"/>
<path d="M207.584 80.7243L214.937 105.163C214.966 105.286 215.022 105.402 215.101 105.501C215.18 105.601 215.279 105.682 215.393 105.739C215.506 105.795 215.63 105.826 215.757 105.83C215.884 105.833 216.01 105.808 216.126 105.757C216.326 105.679 216.491 105.53 216.587 105.338C216.683 105.145 216.704 104.924 216.646 104.717L211.818 79.6843C211.741 79.3686 211.598 79.073 211.397 78.8179C211.196 78.5627 210.942 78.354 210.653 78.2059C210.363 78.0578 210.046 77.9739 209.721 77.9598C209.397 77.9457 209.073 78.0019 208.772 78.1244C208.294 78.3413 207.91 78.724 207.691 79.2018C207.473 79.6797 207.435 80.2204 207.584 80.7243Z" fill="#FEC272"/>
<path d="M193.693 89.563L198.447 108.431C198.464 108.51 198.498 108.585 198.545 108.651C198.592 108.717 198.653 108.772 198.722 108.814C198.792 108.856 198.869 108.883 198.95 108.894C199.03 108.904 199.112 108.898 199.19 108.876C199.259 108.858 199.324 108.826 199.38 108.782C199.436 108.738 199.483 108.683 199.518 108.621C199.552 108.558 199.574 108.49 199.582 108.419C199.589 108.348 199.582 108.276 199.561 108.208L196.516 88.9687C196.478 88.7518 196.393 88.546 196.266 88.3664C196.138 88.1869 195.972 88.0382 195.78 87.9313C195.587 87.8244 195.373 87.762 195.154 87.7487C194.934 87.7354 194.714 87.7716 194.51 87.8545C194.204 88.0084 193.957 88.2598 193.81 88.569C193.662 88.8783 193.621 89.2279 193.693 89.563Z" fill="#FEC272"/>
<path d="M131.742 83.1013L125.577 101.895C125.554 101.978 125.514 102.054 125.459 102.12C125.403 102.185 125.334 102.238 125.256 102.273C125.178 102.309 125.093 102.327 125.007 102.325C124.921 102.324 124.836 102.304 124.759 102.266C124.621 102.205 124.508 102.097 124.44 101.962C124.372 101.826 124.354 101.671 124.388 101.523L128.845 82.2842C128.902 82.0719 129.003 81.874 129.142 81.7037C129.281 81.5333 129.454 81.3944 129.651 81.2962C129.847 81.1979 130.063 81.1424 130.282 81.1335C130.502 81.1245 130.721 81.1623 130.925 81.2443C131.266 81.3991 131.537 81.6741 131.688 82.0167C131.839 82.3593 131.858 82.7455 131.742 83.1013Z" fill="#FEC272"/>
<path d="M143.998 88.8944L135.975 123.807C135.958 123.886 135.925 123.961 135.878 124.027C135.83 124.093 135.77 124.149 135.7 124.19C135.631 124.232 135.553 124.259 135.473 124.27C135.392 124.281 135.311 124.275 135.233 124.252C135.164 124.234 135.099 124.202 135.043 124.158C134.986 124.114 134.939 124.06 134.905 123.997C134.87 123.935 134.848 123.866 134.841 123.795C134.833 123.724 134.84 123.652 134.861 123.584L141.175 88.3001C141.212 88.0832 141.298 87.8774 141.425 87.6978C141.553 87.5183 141.719 87.3696 141.911 87.2627C142.103 87.1558 142.317 87.0934 142.537 87.0801C142.757 87.0668 142.977 87.103 143.181 87.1859C143.513 87.3074 143.785 87.5542 143.938 87.8735C144.09 88.1929 144.112 88.5593 143.998 88.8944Z" fill="#FEC272"/>
<path d="M161.008 92.9777L157.146 118.308C157.135 118.391 157.106 118.47 157.061 118.54C157.015 118.61 156.954 118.668 156.883 118.711C156.811 118.754 156.731 118.78 156.648 118.788C156.564 118.795 156.481 118.783 156.403 118.753C156.264 118.708 156.145 118.618 156.064 118.496C155.983 118.375 155.946 118.23 155.957 118.085L158.037 92.532C158.069 92.3186 158.148 92.1149 158.267 91.9349C158.386 91.755 158.543 91.6032 158.727 91.4901C158.911 91.3769 159.117 91.3052 159.332 91.2799C159.546 91.2546 159.763 91.2763 159.968 91.3435C160.144 91.3824 160.31 91.4555 160.458 91.5587C160.605 91.6619 160.731 91.7931 160.827 91.9449C160.924 92.0967 160.99 92.2661 161.021 92.4433C161.052 92.6205 161.047 92.8021 161.008 92.9777Z" fill="#FEC272"/>
<path d="M180.915 92.4608L181.881 132.647C181.88 132.731 181.861 132.814 181.826 132.891C181.791 132.967 181.74 133.035 181.677 133.091C181.614 133.147 181.541 133.189 181.461 133.215C181.381 133.241 181.296 133.25 181.212 133.241C181.071 133.216 180.942 133.144 180.848 133.036C180.753 132.928 180.698 132.791 180.692 132.647L177.944 92.4608C177.938 92.2444 177.98 92.0293 178.067 91.8311C178.154 91.6329 178.284 91.4564 178.447 91.3144C178.611 91.1724 178.803 91.0683 179.012 91.0096C179.22 90.9509 179.439 90.9392 179.652 90.9751C179.999 91.0445 180.313 91.2289 180.542 91.4985C180.771 91.7681 180.903 92.1071 180.915 92.4608Z" fill="#FEC272"/>
<path d="M103.735 55.9886C102.987 55.112 102.363 54.1373 101.878 53.0917L100.17 41.6523L104.107 45.2921L103.735 55.9886Z" fill="white"/>
<path d="M214.563 59.8514C212.477 63.81 209.852 67.4599 206.763 70.6965C200.078 77.8276 188.787 85.9243 171.999 85.9243C160.188 85.9243 151.423 81.9874 145.183 77.2333C139.311 72.791 134.618 66.9756 131.516 60.2971L214.563 59.8514Z" fill="#CEEDA2"/>
<path d="M214.563 59.8514C212.477 63.81 209.852 67.4599 206.763 70.6965C199.816 73.2978 192.585 75.0681 185.221 75.9705C167.988 78.2733 154.543 78.1247 145.183 77.2333C139.311 72.791 134.618 66.9756 131.516 60.2971L214.563 59.8514Z" fill="#CEEDA2"/>
<path d="M240.711 41.2067C240.313 44.7388 239.668 48.2386 238.78 51.6804C238.528 52.6291 238.127 53.5318 237.592 54.3545C236.032 56.8801 233.06 59.6285 228.232 62.2284C227.415 62.6741 226.449 63.1198 225.484 63.5655C224.741 63.9369 223.998 64.234 223.181 64.6054C222.067 65.0511 220.952 65.4968 219.764 65.9425C214.909 67.5962 209.945 68.9117 204.908 69.8794C204.462 69.9537 204.091 70.028 203.645 70.1023C202.531 70.3251 201.194 70.4737 199.782 70.6222C193.84 71.2908 185.966 71.7365 177.572 71.885C176.012 71.885 174.452 71.9593 172.892 71.9593C164.944 72.0336 156.922 71.8108 149.939 71.4393C148.453 71.3651 146.968 71.2908 145.631 71.1422C142.192 70.9238 138.769 70.5021 135.38 69.8794C131.592 69.1366 128.175 68.3195 125.129 67.4281C123.866 67.0567 122.678 66.6853 121.489 66.3139C112.278 63.2684 106.707 59.5543 103.81 56.1373C103.392 55.6789 103.019 55.1814 102.696 54.6517C102.391 54.2137 102.142 53.7396 101.953 53.2403C101.714 52.7705 101.539 52.2709 101.433 51.7547C100.799 49.2121 100.328 46.6318 100.022 44.0294C99.7247 41.5781 99.6504 39.9439 99.6504 39.9439L170.218 45.2179L240.786 41.281L240.711 41.2067Z" fill="#CEEDA2"/>
<path d="M240.637 41.0582C240.509 41.8191 240.146 42.5207 239.597 43.0638C237.74 45.2179 233.283 48.4121 225.707 51.309C224.741 51.6804 223.701 52.0519 222.587 52.4233C222.067 52.5718 221.547 52.7947 221.027 52.9432C219.913 53.3146 218.724 53.6861 217.461 53.9832C212.607 55.3437 207.669 56.3859 202.679 57.103C201.342 57.3259 199.931 57.5487 198.445 57.6973C191.471 58.5807 184.453 59.0766 177.423 59.1829C175.938 59.1829 174.378 59.2572 172.818 59.2572H172.744C164.796 59.2572 157.442 58.8858 150.831 58.2915C149.345 58.143 147.859 57.9944 146.448 57.8458C139.948 57.1301 133.498 56.0138 127.135 54.5032C125.872 54.206 124.609 53.8346 123.421 53.5375C112.353 50.4919 105.073 46.7036 101.73 43.5837C101.146 43.0492 100.623 42.4513 100.17 41.801C99.7658 41.2634 99.5328 40.6161 99.502 39.9439C99.502 34.6699 120.301 23.4534 173.115 23.4534C225.929 23.3791 240.637 37.4184 240.637 41.0582Z" fill="#1EB53A"/>
<path d="M142.659 29.4702L104.033 45.2922C102.559 44.2664 101.234 43.0415 100.096 41.6524L141.396 28.8017L142.659 29.4702Z" fill="white"/>
<path d="M240.638 41.1323C240.489 41.8646 240.128 42.5365 239.598 43.0637L199.932 29.4701L201.194 28.8759L240.638 41.1323Z" fill="white"/>
<path d="M149.196 33.5556L127.134 54.4288C125.871 54.1316 124.608 53.7602 123.42 53.4631L147.859 33.4813L149.196 33.5556Z" fill="white"/>
<path d="M161.304 36.007L150.83 58.2915C149.344 58.1429 147.859 57.9944 146.447 57.8458L159.967 35.9327L161.304 36.007Z" fill="white"/>
<path d="M202.753 57.1773C201.415 57.4001 199.93 57.6229 198.518 57.7715L188.268 36.007L189.679 35.9327L202.753 57.1773Z" fill="white"/>
<path d="M177.424 59.2571C175.938 59.2571 174.378 59.3314 172.818 59.3314H172.744L174.527 37.4183L175.938 37.344L177.424 59.2571Z" fill="white"/>
<path d="M225.633 51.3089C224.667 51.6803 223.627 52.0518 222.513 52.4232L195.846 33.5556L197.257 33.4813L225.633 51.3089Z" fill="white"/>
<path d="M177.498 71.7364C175.938 71.7364 174.378 71.8107 172.818 71.8107V59.2571L177.424 59.1828L177.498 71.7364Z" fill="white"/>
<path d="M203.496 69.9536C202.308 70.1765 201.045 70.3251 199.634 70.4736L198.445 57.6972L202.679 57.1029L203.496 69.9536Z" fill="white"/>
<path d="M228.157 62.1542C227.34 62.5999 226.374 63.0456 225.409 63.4913L222.586 52.349L225.631 51.3091L228.157 62.1542Z" fill="white"/>
<path d="M150.831 58.2915L149.939 71.2908C148.454 71.2165 146.968 71.1422 145.631 70.9937L146.522 57.8458L150.831 58.2915Z" fill="white"/>
<path d="M127.134 54.4288L125.054 67.2796C123.791 66.9081 122.603 66.5367 121.414 66.1653L123.345 53.4632L127.134 54.4288Z" fill="white"/>
<path d="M104.107 45.4406L102.621 54.5773C102.317 54.1393 102.067 53.6652 101.879 53.1659C101.64 52.6961 101.465 52.1965 101.359 51.6803C100.725 49.1377 100.253 46.5574 99.9473 43.955L100.17 41.7265C100.17 41.7265 101.433 43.2122 101.953 43.7321C102.399 44.1778 104.107 45.4406 104.107 45.4406Z" fill="white"/>
<path d="M169.623 46.2578C191.49 46.2578 209.216 41.2359 209.216 35.0412C209.216 28.8465 191.49 23.8247 169.623 23.8247C147.757 23.8247 130.031 28.8465 130.031 35.0412C130.031 41.2359 147.757 46.2578 169.623 46.2578Z" fill="white"/>
<path d="M205.8 33.2584C205.8 33.2584 202.903 36.5268 195.772 39.3495C190.498 41.4294 182.921 43.2122 172.522 43.2122C167.538 43.2451 162.563 42.7973 157.665 41.8751C143.775 39.201 137.758 33.407 137.758 33.407C137.758 33.407 140.803 10.8253 159.819 3.17433C164.219 1.45071 168.911 0.593148 173.636 0.64875C199.783 0.64875 205.8 33.2584 205.8 33.2584Z" fill="#CEEDA2"/>
<path d="M157.665 41.8751C143.775 39.201 137.758 33.407 137.758 33.407C137.758 33.407 140.803 10.8254 159.819 3.17435C156.105 6.29418 152.466 12.5338 151.871 22.7104C151.277 30.2872 153.06 36.6011 157.665 41.8751Z" fill="#CEEDA2"/>
<path d="M205.801 33.2584C205.801 33.2584 202.904 36.5268 195.773 39.3495C195.029 36.6582 194.086 34.0263 192.95 31.4756C192.95 31.4756 185.968 32.9613 182.848 26.3502C179.728 19.7391 187.23 14.9851 187.23 14.9851C187.23 14.9851 185.448 9.26539 176.237 5.5513C167.026 1.83721 159.672 3.17428 159.672 3.17428C164.072 1.45067 168.763 0.593102 173.488 0.648704C199.784 0.648704 205.801 33.2584 205.801 33.2584Z" fill="#CEEDA2"/>
<path d="M175.865 19.2934C176.973 19.2934 177.871 18.4287 177.871 17.3621C177.871 16.2955 176.973 15.4308 175.865 15.4308C174.757 15.4308 173.859 16.2955 173.859 17.3621C173.859 18.4287 174.757 19.2934 175.865 19.2934Z" fill="#CEEDA2"/>
<path d="M168.882 21.1504C169.744 21.1504 170.442 20.4853 170.442 19.6648C170.442 18.8443 169.744 18.1791 168.882 18.1791C168.021 18.1791 167.322 18.8443 167.322 19.6648C167.322 20.4853 168.021 21.1504 168.882 21.1504Z" fill="#CEEDA2"/>
<path d="M173.561 31.1785C175.243 31.1785 176.607 29.8482 176.607 28.2072C176.607 26.5662 175.243 25.236 173.561 25.236C171.879 25.236 170.516 26.5662 170.516 28.2072C170.516 29.8482 171.879 31.1785 173.561 31.1785Z" fill="#CEEDA2"/>
</g>
<defs>
<clipPath id="clip0_347_670">
<rect width="336.71" height="172.708" fill="white" transform="translate(0.644531 0.646179)"/>
</clipPath>
</defs>
</svg>
