<svg width="30" height="30" viewBox="0 0 31 30" fill="none" xmlns="http://www.w3.org/2000/svg">
<path fill-rule="evenodd" clip-rule="evenodd" d="M4.85179 0.145488C4.54546 0.299297 4.33235 0.55582 4.23813 0.884473C4.16021 1.15611 4.16021 28.8439 4.23813 29.1155C4.33235 29.4442 4.54546 29.7007 4.85179 29.8545L5.14165 30H15.0796H25.0175L25.3073 29.8545C25.6137 29.7007 25.8268 29.4442 25.921 29.1155C25.9985 28.8455 25.9989 7.2109 25.9214 7.00723C25.8504 6.82037 20.1081 0.241992 19.8946 0.102832C19.7476 0.00697265 19.2826 0.000585937 12.4397 0.000292969L5.14165 0L4.85179 0.145488ZM5.39208 1.21096C5.37058 1.2324 5.353 3.11473 5.353 5.39379V9.53754L5.76128 9.56062C6.21298 9.58617 6.4003 9.68525 6.62741 10.0189C6.78345 10.2482 6.80812 10.7534 6.67546 11.0039C6.6294 11.0909 6.313 11.4385 5.97233 11.7763L5.353 12.3905V12.7422V13.0939L6.07159 12.3771C6.46687 11.9828 6.81632 11.6602 6.84819 11.6602C6.92378 11.6602 13.3218 18.0587 13.3218 18.1343C13.3218 18.166 12.92 18.5944 12.4289 19.0862L11.5361 19.9805H11.8877H12.2394L13.0296 19.1854C13.4642 18.7481 13.8969 18.3496 13.9911 18.2998C14.2099 18.184 14.6579 18.1833 14.879 18.2982C15.4299 18.5847 15.621 19.2742 15.2862 19.7675L15.1412 19.9812L19.959 19.9662L24.7768 19.9512L24.7918 13.8721L24.8067 7.79297H22.1639C19.2888 7.79297 19.218 7.78547 19.0721 7.46514C19.0249 7.3616 19.0054 6.41877 19.0054 4.24529V1.17188H12.2183C8.4853 1.17188 5.41353 1.18945 5.39208 1.21096ZM12.5119 8.88803C12.481 8.94639 12.3722 9.26572 12.2701 9.5976C12.1176 10.0935 12.0668 10.1956 11.9854 10.1705C11.3647 9.97939 11.0707 9.93627 10.4214 9.94119C9.42696 9.94875 8.66812 10.179 7.88437 10.7111L7.57399 10.9218L10.8141 14.1636C13.9476 17.2989 14.0571 17.4015 14.1421 17.2813C15.0104 16.0537 15.2807 14.5536 14.874 13.2179C14.8259 13.0595 14.7971 12.9192 14.8102 12.906C14.8233 12.893 15.1332 12.7852 15.4988 12.6667C15.9512 12.52 16.1636 12.4233 16.1636 12.3641C16.1636 12.2157 15.9899 12.2317 15.3166 12.4426L14.6667 12.6462L14.5437 12.4022C14.1878 11.6959 13.5114 10.9753 12.8542 10.6023C12.6585 10.4913 12.4608 10.374 12.4147 10.3418C12.344 10.2923 12.3625 10.1878 12.5339 9.66797C12.6455 9.32959 12.73 9.00205 12.7216 8.94012C12.7011 8.7876 12.5808 8.75771 12.5119 8.88803ZM10.1254 10.9893C9.72081 11.189 9.61874 11.7438 9.9229 12.0902C10.3719 12.6015 11.1636 12.3058 11.1636 11.6268C11.1636 11.3031 11.0349 11.092 10.7702 10.9814C10.5183 10.8762 10.3505 10.8782 10.1254 10.9893ZM13.0929 13.8454C12.7958 13.9505 12.647 14.1866 12.6524 14.5443C12.6564 14.8088 12.6803 14.8629 12.8712 15.0379C13.0418 15.1942 13.135 15.2344 13.3265 15.2344C13.6292 15.2344 13.8799 15.0891 13.9946 14.8472C14.2834 14.2387 13.7274 13.621 13.0929 13.8454ZM7.85249 21.3721C7.83767 21.3963 7.37097 22.9058 6.81532 24.7266C6.25974 26.5474 5.79292 28.0701 5.77792 28.1104C5.75694 28.1667 5.93366 28.1836 6.54333 28.1836H7.3361L7.39569 27.9932C7.42845 27.8884 7.54054 27.4929 7.64472 27.1143L7.83427 26.4258H8.81765H9.80108L9.98302 27.0264C10.083 27.3567 10.205 27.7522 10.2539 27.9053L10.3429 28.1836H11.1625C11.916 28.1836 11.9794 28.1753 11.9502 28.0811C10.983 24.9618 10.1876 22.3937 10.0445 21.9287L9.85968 21.3281H8.86956C8.32499 21.3281 7.86731 21.3479 7.85249 21.3721ZM13.5561 21.3662C13.4756 21.3783 13.2976 21.4027 13.1606 21.4204L12.9116 21.4525V24.818V28.1836H13.6733H14.435V26.9678V25.752L15.0356 25.7435C16.7876 25.7189 17.7836 24.8948 17.787 23.4668C17.7896 22.3932 17.2489 21.7229 16.1544 21.443C15.786 21.3487 15.5255 21.3295 14.704 21.3361C14.1533 21.3405 13.6367 21.354 13.5561 21.3662ZM18.8296 24.7541V28.1836H19.5913H20.353V27.0654V25.9471L20.6244 25.6018C20.7735 25.4119 20.915 25.2684 20.9387 25.283C20.9623 25.2976 21.3468 25.9562 21.7931 26.7466L22.6045 28.1836H23.507H24.4095L24.3241 28.0518C23.6805 27.058 22.0508 24.2876 22.074 24.2269C22.091 24.1828 22.5698 23.5484 23.1381 22.8173C23.7064 22.0863 24.1854 21.4515 24.2026 21.4066C24.2287 21.3387 24.0795 21.3278 23.3074 21.3412L22.3808 21.3574L21.3679 22.8653L20.355 24.3732L20.3394 22.8653L20.3237 21.3574L19.5766 21.341L18.8296 21.3246V24.7541ZM14.6255 22.4803L14.435 22.5074V23.5264V24.5454L14.6462 24.5851C14.9561 24.6432 15.5869 24.521 15.8395 24.3538C16.2538 24.0797 16.4104 23.3987 16.1585 22.9663C15.9366 22.5855 15.3009 22.384 14.6255 22.4803ZM8.61228 23.1885C8.52497 23.5672 8.3656 24.1802 8.25808 24.5508C8.15056 24.9214 8.07409 25.2444 8.08821 25.2686C8.11839 25.3204 9.57175 25.3289 9.57175 25.2773C9.57175 25.2579 9.48942 24.9613 9.38882 24.6181C9.28821 24.2749 9.11858 23.6685 9.01194 23.2706C8.90524 22.8726 8.80739 22.5364 8.7945 22.5235C8.78161 22.5106 8.69964 22.8099 8.61228 23.1885Z" fill="black"/>
</svg>
