<svg width="28" height="22" viewBox="0 0 28 22" fill="none" xmlns="http://www.w3.org/2000/svg">
<path d="M10.3552 21.23C10.0702 21.23 9.78516 21.125 9.56016 20.9L0.455156 11.795C0.0201563 11.36 0.0201563 10.64 0.455156 10.205L9.56016 1.09999C9.99516 0.664993 10.7152 0.664993 11.1502 1.09999C11.5852 1.53499 11.5852 2.25499 11.1502 2.68999L2.84016 11L11.1502 19.31C11.5852 19.745 11.5852 20.465 11.1502 20.9C10.9402 21.125 10.6402 21.23 10.3552 21.23Z" fill="#292D32"/>
<path d="M26.7499 12.125H1.50488C0.889883 12.125 0.379883 11.615 0.379883 11C0.379883 10.385 0.889883 9.875 1.50488 9.875H26.7499C27.3649 9.875 27.8749 10.385 27.8749 11C27.8749 11.615 27.3649 12.125 26.7499 12.125Z" fill="#292D32"/>
</svg>
