<svg width="36" height="36" viewBox="0 0 36 36" fill="none" xmlns="http://www.w3.org/2000/svg">
<rect width="36" height="36" rx="8" fill="#07C877"/>
<path d="M26.4201 18.22C26.0101 18.22 25.6701 17.88 25.6701 17.47V14.15C25.6701 12.91 24.6601 11.9 23.4201 11.9H9.58008C9.17008 11.9 8.83008 11.56 8.83008 11.15C8.83008 10.74 9.17008 10.4 9.58008 10.4H23.4201C25.4901 10.4 27.1701 12.08 27.1701 14.15V17.47C27.1701 17.89 26.8301 18.22 26.4201 18.22Z" fill="white"/>
<path d="M12.7401 15.07C12.5501 15.07 12.3601 14.9999 12.2101 14.8499L9.05008 11.69C8.91008 11.55 8.83008 11.3599 8.83008 11.1599C8.83008 10.9599 8.91008 10.77 9.05008 10.63L12.2101 7.46994C12.5001 7.17994 12.9801 7.17994 13.2701 7.46994C13.5601 7.75994 13.5601 8.24 13.2701 8.53L10.6401 11.1599L13.2701 13.7899C13.5601 14.0799 13.5601 14.5599 13.2701 14.8499C13.1201 14.9899 12.9301 15.07 12.7401 15.07Z" fill="white"/>
<path d="M26.4201 25.59H12.5801C10.5101 25.59 8.83008 23.91 8.83008 21.84V18.52C8.83008 18.11 9.17008 17.77 9.58008 17.77C9.99008 17.77 10.3301 18.11 10.3301 18.52V21.84C10.3301 23.08 11.3401 24.09 12.5801 24.09H26.4201C26.8301 24.09 27.1701 24.43 27.1701 24.84C27.1701 25.25 26.8301 25.59 26.4201 25.59Z" fill="white"/>
<path d="M23.2602 28.75C23.0702 28.75 22.8802 28.68 22.7302 28.53C22.4402 28.24 22.4402 27.7599 22.7302 27.4699L25.3602 24.84L22.7302 22.21C22.4402 21.92 22.4402 21.44 22.7302 21.15C23.0202 20.86 23.5002 20.86 23.7902 21.15L26.9502 24.31C27.0902 24.45 27.1702 24.64 27.1702 24.84C27.1702 25.04 27.0902 25.23 26.9502 25.37L23.7902 28.53C23.6502 28.68 23.4602 28.75 23.2602 28.75Z" fill="white"/>
</svg>
