<svg width="25" height="24" viewBox="0 0 25 24" fill="none" xmlns="http://www.w3.org/2000/svg">
<path d="M18.6057 16.75C18.4457 16.75 18.2957 16.7 18.1557 16.6C17.8257 16.35 17.7557 15.88 18.0057 15.55C19.5757 13.46 19.5757 10.54 18.0057 8.45C17.7557 8.12 17.8257 7.65 18.1557 7.4C18.4857 7.15 18.9557 7.22 19.2057 7.55C21.1657 10.17 21.1657 13.83 19.2057 16.45C19.0557 16.65 18.8357 16.75 18.6057 16.75Z" fill="#264F2B"/>
<path d="M20.4358 19.25C20.2758 19.25 20.1258 19.2 19.9858 19.1C19.6558 18.85 19.5858 18.38 19.8358 18.05C22.5058 14.49 22.5058 9.51 19.8358 5.95C19.5858 5.62 19.6558 5.15 19.9858 4.9C20.3158 4.65 20.7858 4.72 21.0358 5.05C24.1058 9.14 24.1058 14.86 21.0358 18.95C20.8958 19.15 20.6658 19.25 20.4358 19.25Z" fill="#264F2B"/>
<path d="M14.6255 3.78C13.5055 3.16 12.0755 3.32 10.6155 4.23L7.69547 6.06C7.49547 6.18 7.26547 6.25 7.03547 6.25H6.10547H5.60547C3.18547 6.25 1.85547 7.58 1.85547 10V14C1.85547 16.42 3.18547 17.75 5.60547 17.75H6.10547H7.03547C7.26547 17.75 7.49547 17.82 7.69547 17.94L10.6155 19.77C11.4955 20.32 12.3555 20.59 13.1555 20.59C13.6755 20.59 14.1755 20.47 14.6255 20.22C15.7355 19.6 16.3555 18.31 16.3555 16.59V7.41C16.3555 5.69 15.7355 4.4 14.6255 3.78Z" fill="#264F2B"/>
</svg>
