<svg width="32" height="24" viewBox="0 0 32 24" fill="none" xmlns="http://www.w3.org/2000/svg">
<g clip-path="url(#clip0_74_1234)">
<path d="M0 16H32V24H0V16Z" fill="#1EB53A"/>
<path d="M0 0H32V8H0V0Z" fill="#0099B5"/>
<path d="M0 7.67999H32V16.32H0V7.67999Z" fill="#CE1126"/>
<path d="M0 8.16H32V15.84H0V8.16Z" fill="white"/>
<path d="M6.71984 6.71999C8.31042 6.71999 9.59984 5.43057 9.59984 3.83999C9.59984 2.24941 8.31042 0.959991 6.71984 0.959991C5.12926 0.959991 3.83984 2.24941 3.83984 3.83999C3.83984 5.43057 5.12926 6.71999 6.71984 6.71999Z" fill="white"/>
<path d="M7.6798 6.71999C9.27038 6.71999 10.5598 5.43057 10.5598 3.83999C10.5598 2.24941 9.27038 0.959991 7.6798 0.959991C6.08922 0.959991 4.7998 2.24941 4.7998 3.83999C4.7998 5.43057 6.08922 6.71999 7.6798 6.71999Z" fill="#0099B5"/>
</g>
<defs>
<clipPath id="clip0_74_1234">
<rect width="32" height="24" rx="4" fill="white"/>
</clipPath>
</defs>
</svg>
